<mxfile host="app.diagrams.net" modified="2021-05-23T11:23:51.596Z" agent="5.0 (X11)" etag="7i7XXL6f6xs1mUx4vNR0" version="14.7.0" type="github">
  <diagram id="enoIybo3rPJg0Il2eto0" name="Page-1">
    <mxGraphModel dx="1587" dy="394" grid="1" gridSize="10" guides="1" tooltips="1" connect="1" arrows="1" fold="1" page="1" pageScale="1" pageWidth="827" pageHeight="1169" math="0" shadow="0">
      <root>
        <mxCell id="0" />
        <mxCell id="1" parent="0" />
        <mxCell id="itgruSseSPr3eh4PhL-f-1" value="词法分析" style="swimlane;fontFamily=Times New Roman;" vertex="1" parent="1">
          <mxGeometry x="60" y="30" width="320" height="220" as="geometry">
            <mxRectangle x="60" y="30" width="80" height="23" as="alternateBounds" />
          </mxGeometry>
        </mxCell>
        <mxCell id="itgruSseSPr3eh4PhL-f-24" value="" style="html=1;shadow=0;dashed=0;align=center;verticalAlign=middle;shape=mxgraph.arrows2.arrow;dy=0.62;dx=13.2;notch=8.4;strokeWidth=1;" vertex="1" parent="itgruSseSPr3eh4PhL-f-1">
          <mxGeometry x="70" y="55" width="40" height="40" as="geometry" />
        </mxCell>
        <mxCell id="itgruSseSPr3eh4PhL-f-7" value="&lt;div&gt;token &amp;amp;&lt;br&gt;&lt;/div&gt;&lt;div&gt;符号表&lt;/div&gt;" style="shape=internalStorage;whiteSpace=wrap;html=1;backgroundOutline=1;dx=10;dy=10;fontFamily=Times New Roman;" vertex="1" parent="itgruSseSPr3eh4PhL-f-1">
          <mxGeometry x="240" y="40" width="70" height="70" as="geometry" />
        </mxCell>
        <mxCell id="itgruSseSPr3eh4PhL-f-8" value="&lt;div&gt;词法规则&lt;/div&gt;&lt;div&gt;&lt;font face=&quot;Times New Roman&quot;&gt;abc.l&lt;/font&gt;&lt;br&gt;&lt;/div&gt;" style="shape=note;whiteSpace=wrap;html=1;backgroundOutline=1;darkOpacity=0.05;size=15;" vertex="1" parent="itgruSseSPr3eh4PhL-f-1">
          <mxGeometry x="10" y="40" width="60" height="70" as="geometry" />
        </mxCell>
        <mxCell id="itgruSseSPr3eh4PhL-f-14" style="edgeStyle=orthogonalEdgeStyle;rounded=0;orthogonalLoop=1;jettySize=auto;html=1;entryX=0.1;entryY=0.5;entryDx=0;entryDy=0;entryPerimeter=0;" edge="1" parent="itgruSseSPr3eh4PhL-f-1" source="itgruSseSPr3eh4PhL-f-11" target="itgruSseSPr3eh4PhL-f-12">
          <mxGeometry relative="1" as="geometry" />
        </mxCell>
        <mxCell id="itgruSseSPr3eh4PhL-f-11" value="flex" style="label;whiteSpace=wrap;html=1;image=img/clipart/Gear_128x128.png;align=center;fontFamily=Times New Roman;" vertex="1" parent="itgruSseSPr3eh4PhL-f-1">
          <mxGeometry x="110" y="45" width="90" height="60" as="geometry" />
        </mxCell>
        <mxCell id="itgruSseSPr3eh4PhL-f-12" value="" style="shape=curlyBracket;whiteSpace=wrap;html=1;rounded=1;align=center;labelPosition=center;verticalLabelPosition=middle;verticalAlign=middle;rotation=90;" vertex="1" parent="itgruSseSPr3eh4PhL-f-1">
          <mxGeometry x="145" y="42" width="20" height="170" as="geometry" />
        </mxCell>
        <mxCell id="itgruSseSPr3eh4PhL-f-19" value="&lt;div style=&quot;font-size: 10px&quot;&gt;&lt;font style=&quot;font-size: 12px&quot;&gt;1. 设置yyin等&lt;/font&gt;&lt;/div&gt;&lt;div&gt;2.yyrestart(File* f)&lt;br&gt;&lt;/div&gt;" style="shape=step;perimeter=stepPerimeter;whiteSpace=wrap;html=1;fixedSize=1;strokeWidth=1;align=center;fontFamily=Times New Roman;" vertex="1" parent="itgruSseSPr3eh4PhL-f-1">
          <mxGeometry x="25" y="140" width="130" height="40" as="geometry" />
        </mxCell>
        <mxCell id="itgruSseSPr3eh4PhL-f-20" value="yylex()" style="shape=step;perimeter=stepPerimeter;whiteSpace=wrap;html=1;fixedSize=1;strokeWidth=1;align=center;fontFamily=Times New Roman;" vertex="1" parent="itgruSseSPr3eh4PhL-f-1">
          <mxGeometry x="155" y="140" width="130" height="40" as="geometry" />
        </mxCell>
        <mxCell id="itgruSseSPr3eh4PhL-f-25" value="" style="html=1;shadow=0;dashed=0;align=center;verticalAlign=middle;shape=mxgraph.arrows2.arrow;dy=0.62;dx=13.2;notch=8.4;strokeWidth=1;" vertex="1" parent="itgruSseSPr3eh4PhL-f-1">
          <mxGeometry x="200" y="55" width="40" height="40" as="geometry" />
        </mxCell>
        <mxCell id="itgruSseSPr3eh4PhL-f-26" value="&amp;lt;CMD&amp;gt; flex -o abc.lex.c&amp;nbsp; abc.l" style="text;html=1;strokeColor=none;fillColor=none;align=center;verticalAlign=middle;whiteSpace=wrap;rounded=0;fontFamily=Times New Roman;" vertex="1" parent="itgruSseSPr3eh4PhL-f-1">
          <mxGeometry x="25" y="190" width="260" height="20" as="geometry" />
        </mxCell>
        <mxCell id="itgruSseSPr3eh4PhL-f-2" value="语法分析" style="swimlane;" vertex="1" parent="1">
          <mxGeometry x="400" y="30" width="320" height="220" as="geometry">
            <mxRectangle x="330" y="20" width="80" height="23" as="alternateBounds" />
          </mxGeometry>
        </mxCell>
        <mxCell id="itgruSseSPr3eh4PhL-f-27" value="" style="html=1;shadow=0;dashed=0;align=center;verticalAlign=middle;shape=mxgraph.arrows2.arrow;dy=0.62;dx=13.2;notch=8.4;strokeWidth=1;" vertex="1" parent="itgruSseSPr3eh4PhL-f-2">
          <mxGeometry x="70" y="55" width="40" height="40" as="geometry" />
        </mxCell>
        <mxCell id="itgruSseSPr3eh4PhL-f-29" value="语法规则&lt;div&gt;&lt;font face=&quot;Times New Roman&quot;&gt;abc.y&lt;/font&gt;&lt;br&gt;&lt;/div&gt;" style="shape=note;whiteSpace=wrap;html=1;backgroundOutline=1;darkOpacity=0.05;size=15;" vertex="1" parent="itgruSseSPr3eh4PhL-f-2">
          <mxGeometry x="10" y="40" width="60" height="70" as="geometry" />
        </mxCell>
        <mxCell id="itgruSseSPr3eh4PhL-f-31" value="bison" style="label;whiteSpace=wrap;html=1;image=img/clipart/Gear_128x128.png;align=center;fontFamily=Times New Roman;" vertex="1" parent="itgruSseSPr3eh4PhL-f-2">
          <mxGeometry x="110" y="45" width="90" height="60" as="geometry" />
        </mxCell>
        <mxCell id="itgruSseSPr3eh4PhL-f-32" value="" style="shape=curlyBracket;whiteSpace=wrap;html=1;rounded=1;align=center;labelPosition=center;verticalLabelPosition=middle;verticalAlign=middle;rotation=90;" vertex="1" parent="itgruSseSPr3eh4PhL-f-2">
          <mxGeometry x="145" y="42" width="20" height="170" as="geometry" />
        </mxCell>
        <mxCell id="itgruSseSPr3eh4PhL-f-30" style="edgeStyle=orthogonalEdgeStyle;rounded=0;orthogonalLoop=1;jettySize=auto;html=1;entryX=0.1;entryY=0.5;entryDx=0;entryDy=0;entryPerimeter=0;" edge="1" parent="itgruSseSPr3eh4PhL-f-2" source="itgruSseSPr3eh4PhL-f-31" target="itgruSseSPr3eh4PhL-f-32">
          <mxGeometry relative="1" as="geometry">
            <Array as="points">
              <mxPoint x="155" y="105" />
              <mxPoint x="155" y="105" />
            </Array>
          </mxGeometry>
        </mxCell>
        <mxCell id="itgruSseSPr3eh4PhL-f-33" value="&lt;div style=&quot;font-size: 10px&quot;&gt;&lt;font style=&quot;font-size: 12px&quot;&gt;1. 设置yyin等&lt;/font&gt;&lt;/div&gt;&lt;div&gt;2.yyrestart(File* f)&lt;br&gt;&lt;/div&gt;" style="shape=step;perimeter=stepPerimeter;whiteSpace=wrap;html=1;fixedSize=1;strokeWidth=1;align=center;fontFamily=Times New Roman;" vertex="1" parent="itgruSseSPr3eh4PhL-f-2">
          <mxGeometry x="25" y="140" width="130" height="40" as="geometry" />
        </mxCell>
        <mxCell id="itgruSseSPr3eh4PhL-f-34" value="yyparse()" style="shape=step;perimeter=stepPerimeter;whiteSpace=wrap;html=1;fixedSize=1;strokeWidth=1;align=center;fontFamily=Times New Roman;" vertex="1" parent="itgruSseSPr3eh4PhL-f-2">
          <mxGeometry x="155" y="140" width="130" height="40" as="geometry" />
        </mxCell>
        <mxCell id="itgruSseSPr3eh4PhL-f-35" value="" style="html=1;shadow=0;dashed=0;align=center;verticalAlign=middle;shape=mxgraph.arrows2.arrow;dy=0.62;dx=13.2;notch=8.4;strokeWidth=1;" vertex="1" parent="itgruSseSPr3eh4PhL-f-2">
          <mxGeometry x="200" y="55" width="40" height="40" as="geometry" />
        </mxCell>
        <mxCell id="itgruSseSPr3eh4PhL-f-36" value="&amp;lt;CMD&amp;gt; bison -d abc.y // -o abc.tab.c/h" style="text;html=1;strokeColor=none;fillColor=none;align=center;verticalAlign=middle;whiteSpace=wrap;rounded=0;fontFamily=Times New Roman;" vertex="1" parent="itgruSseSPr3eh4PhL-f-2">
          <mxGeometry x="25" y="190" width="260" height="20" as="geometry" />
        </mxCell>
        <mxCell id="itgruSseSPr3eh4PhL-f-37" value="AST" style="shape=datastore;whiteSpace=wrap;html=1;fontFamily=Times New Roman;strokeWidth=1;align=center;" vertex="1" parent="itgruSseSPr3eh4PhL-f-2">
          <mxGeometry x="240" y="40" width="70" height="70" as="geometry" />
        </mxCell>
        <mxCell id="itgruSseSPr3eh4PhL-f-13" value="源代码" style="strokeWidth=1;html=1;shape=mxgraph.flowchart.multi-document;whiteSpace=wrap;align=center;" vertex="1" parent="1">
          <mxGeometry x="-78" y="160" width="88" height="60" as="geometry" />
        </mxCell>
      </root>
    </mxGraphModel>
  </diagram>
</mxfile>
